<svg xmlns="http://www.w3.org/2000/svg" width="338.442" height="156.844" viewBox="0 0 338.442 156.844">
  <g id="Group_317" data-name="Group 317" transform="translate(1600 -1517.156)">
    <text id="Medau" transform="translate(-1600 1553)" fill="#ee7d4b" font-size="80" font-family="Comfortaa-Bold, Comfortaa" font-weight="700"><tspan x="0" y="70">Medau</tspan></text>
    <g id="Group_313" data-name="Group 313" transform="translate(-1333.058 1518.656)">
      <g id="Group_313-2" data-name="Group 313">
        <path id="Path_815" data-name="Path 815" d="M19.626,28.991H6.9l9.545-9.545Z" transform="translate(-6.9 -3.536)" fill="none" stroke="#ee7d4b" stroke-linecap="round" stroke-linejoin="round" stroke-miterlimit="10" stroke-width="3"/>
        <path id="Path_816" data-name="Path 816" d="M14.427,19.446l19.09,3.182L21.853,41.717Z" transform="translate(-4.882 -3.536)" fill="none" stroke="#ee7d4b" stroke-linecap="round" stroke-linejoin="round" stroke-miterlimit="10" stroke-width="3"/>
        <path id="Path_817" data-name="Path 817" d="M47.341,35.536,34.079,16.445,63.249,6.9Z" transform="translate(0.387 -6.9)" fill="none" stroke="#ee7d4b" stroke-linecap="round" stroke-linejoin="round" stroke-miterlimit="10" stroke-width="3"/>
        <path id="Path_818" data-name="Path 818" d="M38.577,59.708l7.557-30.226,9.545,41.364Z" transform="translate(1.593 -0.846)" fill="none" stroke="#ee7d4b" stroke-linecap="round" stroke-linejoin="round" stroke-miterlimit="10" stroke-width="3"/>
        <path id="Path_819" data-name="Path 819" d="M51.04,29.482,20.283,39.026,44.675,54.935Z" transform="translate(-3.312 -0.846)" fill="none" stroke="#ee7d4b" stroke-linecap="round" stroke-linejoin="round" stroke-miterlimit="10" stroke-width="3"/>
        <path id="Path_820" data-name="Path 820" d="M51.04,33.518,20.283,43.062l17.5-28.635Z" transform="translate(-3.312 -4.882)" fill="none" stroke="#ee7d4b" stroke-linecap="round" stroke-linejoin="round" stroke-miterlimit="10" stroke-width="3"/>
        <path id="Path_821" data-name="Path 821" d="M56.521,12.617,44.537,34.191,66.809,11.918Z" transform="translate(3.191 -5.554)" fill="none" stroke="#ee7d4b" stroke-linecap="round" stroke-linejoin="round" stroke-miterlimit="10" stroke-width="3"/>
      </g>
    </g>
  </g>
</svg>
